<svg xmlns:svg="http://www.w3.org/2000/svg" xmlns="http://www.w3.org/2000/svg" width="100" height="100">
  <!-- <circle cx="50" cy="50" r="50" fill="#ddd"/> -->
  <rect x="0" y="0" rx="10" ry="10" width="100" height="100" fill="#ddd"/>
  <rect x="10" y="20" rx="3" ry="3" width="80" height="60" stroke="#666" stroke-width="2" fill="#ddd"/>
  <rect x="15" y="25" width="20" height="20" fill="#ddd" stroke="#666" stroke-width="2"/>
  <!--rect x="19" y="29" width="12" height="12" fill="#666"/-->
  <polyline points="21,32 29,40 39,20" style="fill:none;stroke:#666;stroke-width:3" />
  <text x="40" y="40" fill="#666" font-family="Arial" font-size="15" font-weight="bold">A</text>
  <rect x="15" y="50" width="20" height="20" fill="#ddd" stroke="#666" stroke-width="2"/>
  <!--rect x="19" y="54" width="12" height="12" fill="#666"/-->
  <polyline points="21,57 29,65 39,45" style="fill:none;stroke:#666;stroke-width:3" />
  <text x="40" y="65" fill="#666" font-family="Arial" font-size="15" font-weight="bold">B</text>
  <circle cx="80" cy="80" r="15" fill="#666"/>
  <polygon points="71,89 79,86 74,81" fill="#ddd"/>
  <polygon points="80,85 75,80 85,70 90,75" fill="#ddd"/>
</svg>